HIERARCHY
ROOT Hips
{
	OFFSET 0.000000 0.000000 0.000000
	CHANNELS 6 Xposition Yposition Zposition Zrotation Yrotation Xrotation 
	JOINT LowerBack
	{
		OFFSET 0.000000 0.000000 0.000000
		CHANNELS 3 Zrotation Yrotation Xrotation
		JOINT Spine
		{
			OFFSET 0.028270 2.035590 -0.193380
			CHANNELS 3 Zrotation Yrotation Xrotation
			JOINT Spine1
			{
				OFFSET 0.056720 2.048850 -0.042750
				CHANNELS 3 Zrotation Yrotation Xrotation
				JOINT Neck
				{
					OFFSET 0.000000 0.000000 0.000000
					CHANNELS 3 Zrotation Yrotation Xrotation
					JOINT Neck1
					{
						OFFSET -0.054170 1.746240 0.172020
						CHANNELS 3 Zrotation Yrotation Xrotation
						JOINT Head
						{
							OFFSET 0.104070 1.761360 -0.123970
							CHANNELS 3 Zrotation Yrotation Xrotation
							End Site
							{
								OFFSET 0.000000 0.000000 0.000000
							}
						}
					}
				}
				JOINT LeftShoulder
				{
					OFFSET 0.000000 0.000000 0.000000
					CHANNELS 3 Zrotation Yrotation Xrotation
					JOINT LeftArm
					{
						OFFSET 3.362410 1.200890 -0.311210
						CHANNELS 3 Zrotation Yrotation Xrotation
						JOINT LeftForeArm
						{
							OFFSET 4.983000 -0.000000 -0.000000
							CHANNELS 3 Zrotation Yrotation Xrotation
							JOINT LeftHand
							{
								OFFSET 3.483560 -0.000000 -0.000000
								CHANNELS 3 Zrotation Yrotation Xrotation
								JOINT LeftFingerBase
								{
									OFFSET 0.000000 0.000000 0.000000
									CHANNELS 3 Zrotation Yrotation Xrotation
									JOINT LeftHandIndex1
									{
										OFFSET 0.715260 -0.000000 -0.000000
										CHANNELS 3 Zrotation Yrotation Xrotation
										End Site
										{
											OFFSET 0.000000 0.000000 0.000000
										}
									}
								}
								JOINT LThumb
								{
									OFFSET 0.000000 0.000000 0.000000
									CHANNELS 3 Zrotation Yrotation Xrotation
									End Site
									{
										OFFSET 0.000000 0.000000 0.000000
									}
								}
							}
						}
					}
				}
				JOINT RightShoulder
				{
					OFFSET 0.000000 0.000000 0.000000
					CHANNELS 3 Zrotation Yrotation Xrotation
					JOINT RightArm
					{
						OFFSET -3.136600 1.374050 -0.404650
						CHANNELS 3 Zrotation Yrotation Xrotation
						JOINT RightForeArm
						{
							OFFSET -5.241900 -0.000000 -0.000000
							CHANNELS 3 Zrotation Yrotation Xrotation
							JOINT RightHand
							{
								OFFSET -3.444170 -0.000000 -0.000000
								CHANNELS 3 Zrotation Yrotation Xrotation
								JOINT RightFingerBase
								{
									OFFSET 0.000000 0.000000 0.000000
									CHANNELS 3 Zrotation Yrotation Xrotation
									JOINT RightHandIndex1
									{
										OFFSET -0.622530 -0.000000 -0.000000
										CHANNELS 3 Zrotation Yrotation Xrotation
										End Site
										{
											OFFSET 0.000000 0.000000 0.000000
										}
									}
								}
								JOINT RThumb
								{
									OFFSET 0.000000 0.000000 0.000000
									CHANNELS 3 Zrotation Yrotation Xrotation
									End Site
									{
										OFFSET 0.000000 0.000000 0.000000
									}
								}
							}
						}
					}
				}
			}
		}
	}
}
}
MOTION
Frames: 15
Frame Time: 0.008333
15.696762 17.749622 1.899079 -152.156671 -85.322795 177.420783 4.139088 -3.361773 -4.015286 0.889760 -3.710178 -4.026068 -4.470016 -3.731622 -1.564581 6.958295 -15.946558 -9.217001 -2.444565 -0.172070 -0.403093 0.000000 0.000000 0.000000 9.361201 3.985633 -0.779265 -79.557975 -2.978514 31.190268 -179.061777 -63.389516 179.955963 4.510351 -6.918703 -0.310562 -0.117809 0.892182 -0.000000 0.000000 0.000000 0.000000 0.000000 0.000000 0.000000 2.336658 -10.855422 -0.294501 70.314138 -20.591956 25.932140 -179.989016 73.821398 179.942136 -8.535237 12.473277 -0.988424 0.101418 -0.590973 0.000000 0.000000 0.000000 0.000000 0.000000 0.000000 0.000000 
15.445138 17.774092 1.865805 -154.178905 -85.322738 179.429962 4.099666 -3.361440 -4.037616 0.882438 -3.706926 -4.041860 -4.467404 -3.729435 -1.622571 6.904540 -15.873533 -9.156446 -2.445510 -0.173245 -0.384819 0.000000 0.000000 0.000000 9.462820 3.817962 -0.786042 -79.748298 -2.644639 31.289083 -179.111792 -63.467060 179.955003 4.570661 -6.825870 -0.310508 -0.115770 0.885803 -0.000000 0.000000 0.000000 0.000000 0.000000 0.000000 0.000000 2.247769 -10.742762 -0.296024 70.536545 -21.000263 25.403192 -179.980612 73.580735 179.941187 -8.596482 12.566611 -1.002822 0.100913 -0.593858 -0.000000 0.000000 0.000000 0.000000 0.000000 0.000000 0.000000 
15.195304 17.786897 1.833016 -156.781111 -85.306408 -178.042397 4.014332 -3.362275 -4.002670 0.863091 -3.700261 -4.046209 -4.475793 -3.722830 -1.685985 6.874062 -15.767715 -9.094271 -2.453039 -0.174826 -0.367145 0.000000 0.000000 0.000000 9.495826 3.680501 -0.781875 -79.928276 -2.305670 31.354086 -179.156945 -63.633420 179.953904 4.659875 -6.713750 -0.311546 -0.115328 0.877922 -0.000000 0.000000 0.000000 0.000000 0.000000 0.000000 0.000000 2.221164 -10.596556 -0.295846 70.753788 -21.314478 24.903363 -179.974414 73.382941 179.940539 -8.609128 12.608587 -1.007534 0.099570 -0.595868 -0.000000 0.000000 0.000000 0.000000 0.000000 0.000000 0.000000 
14.947126 17.788059 1.800907 -159.766067 -85.264332 -175.194537 3.894480 -3.362642 -3.908735 0.834793 -3.689424 -4.037460 -4.493275 -3.710979 -1.747761 6.865685 -15.644373 -9.036872 -2.464318 -0.176479 -0.351944 0.000000 0.000000 0.000000 9.460042 3.588468 -0.767744 -80.097486 -1.983398 31.393154 -179.194877 -63.887564 179.952760 4.769370 -6.601288 -0.313677 -0.116305 0.869393 -0.000000 0.000000 0.000000 0.000000 0.000000 0.000000 0.000000 2.245845 -10.435092 -0.294786 70.962605 -21.512571 24.453502 -179.970626 73.235667 179.940246 -8.563018 12.604238 -1.001757 0.097146 -0.597063 -0.000000 0.000000 0.000000 0.000000 0.000000 0.000000 0.000000 
14.700721 17.777454 1.769545 -162.797746 -85.184680 -172.361412 3.760779 -3.358213 -3.757017 0.801787 -3.671691 -4.016197 -4.518666 -3.691221 -1.806934 6.877540 -15.509668 -8.985562 -2.477780 -0.178068 -0.339538 0.000000 0.000000 0.000000 9.362299 3.541931 -0.744350 -80.260526 -1.681248 31.404312 -179.225089 -64.222353 179.951763 4.877772 -6.488593 -0.315607 -0.117785 0.860299 -0.000000 0.000000 0.000000 0.000000 0.000000 0.000000 0.000000 2.311154 -10.262867 -0.292446 71.164127 -21.593974 24.057604 -179.969431 73.135887 179.940359 -8.444242 12.556377 -0.983896 0.093260 -0.597523 0.000000 0.000000 0.000000 0.000000 0.000000 0.000000 0.000000 
14.456069 17.754925 1.738923 -165.563561 -85.065479 -169.849696 3.632327 -3.345551 -3.555560 0.767983 -3.645157 -3.984031 -4.549718 -3.661762 -1.861169 6.906248 -15.372333 -8.942420 -2.491363 -0.179418 -0.330353 0.000000 0.000000 0.000000 9.212234 3.541160 -0.713493 -80.423402 -1.402041 31.386124 -179.248133 -64.630122 179.951090 4.964801 -6.376968 -0.315846 -0.118862 0.850732 -0.000000 0.000000 0.000000 0.000000 0.000000 0.000000 0.000000 2.403935 -10.087563 -0.288522 71.360033 -21.559918 23.720827 -179.971195 73.084986 179.940944 -8.240038 12.472607 -0.953452 0.087574 -0.597343 -0.000000 0.000000 0.000000 0.000000 0.000000 0.000000 0.000000 
14.212872 17.720319 1.708812 -168.015732 -84.917557 -167.698691 3.509335 -3.325484 -3.314502 0.733722 -3.610753 -3.942731 -4.584488 -3.623675 -1.908248 6.949785 -15.241277 -8.908691 -2.503442 -0.180403 -0.324548 0.000000 0.000000 0.000000 9.019549 3.580449 -0.677515 -80.588981 -1.142176 31.336572 -179.264910 -65.104503 179.950928 5.007020 -6.290357 -0.314300 -0.118472 0.841537 -0.000000 0.000000 0.000000 0.000000 0.000000 0.000000 0.000000 2.515512 -9.919064 -0.282736 71.551820 -21.413925 23.447072 -179.976303 73.086251 179.942036 -7.945036 12.367723 -0.911125 0.079957 -0.596735 0.000000 0.000000 0.000000 0.000000 0.000000 0.000000 0.000000 
13.970908 17.673338 1.679251 -169.809199 -84.745169 -166.235102 3.421940 -3.292421 -3.053250 0.704604 -3.565455 -3.896034 -4.621843 -3.574124 -1.945235 7.004837 -15.123489 -8.886495 -2.512846 -0.180945 -0.322397 0.000000 0.000000 0.000000 8.790717 3.663255 -0.638118 -80.761336 -0.905248 31.259459 -179.276670 -65.642547 179.951359 4.996505 -6.201838 -0.309175 -0.116354 0.831733 -0.000000 0.000000 0.000000 0.000000 0.000000 0.000000 0.000000 2.637586 -9.761819 -0.275183 71.738199 -21.164659 23.233053 -179.985607 73.141657 179.943719 -7.549038 12.246562 -0.856615 0.070208 -0.595663 0.000000 0.000000 0.000000 0.000000 0.000000 0.000000 0.000000 
13.729794 17.614218 1.649939 -171.190667 -84.573767 -165.203784 3.354773 -3.252362 -2.784737 0.678247 -3.514310 -3.846519 -4.661132 -3.518511 -1.972697 7.070947 -15.021472 -8.873555 -2.520121 -0.181150 -0.322988 0.000000 0.000000 0.000000 8.529833 3.772826 -0.597216 -80.935994 -0.676523 31.149702 -179.285165 -66.240636 179.952499 4.914711 -6.153692 -0.301371 -0.111643 0.822736 -0.000000 0.000000 0.000000 0.000000 0.000000 0.000000 0.000000 2.773757 -9.621768 -0.265609 71.918230 -20.822417 23.074662 -179.999426 73.264696 179.945964 -7.066512 12.127110 -0.793319 0.058745 -0.594269 -0.000000 0.000000 0.000000 0.000000 0.000000 0.000000 0.000000 
13.489207 17.543150 1.620855 -172.116855 -84.417206 -164.630690 3.318859 -3.204998 -2.528061 0.656738 -3.458261 -3.798076 -4.703219 -3.458132 -1.990646 7.147619 -14.935071 -8.868579 -2.526487 -0.181176 -0.325634 0.000000 0.000000 0.000000 8.235258 3.902771 -0.555520 -81.106698 -0.449561 31.009281 -179.292204 -66.900813 179.954321 4.763983 -6.141397 -0.290987 -0.104490 0.814272 -0.000000 0.000000 0.000000 0.000000 0.000000 0.000000 0.000000 2.930536 -9.499121 -0.254292 72.085897 -20.398328 22.962908 179.981759 73.467426 179.948746 -6.512149 12.015196 -0.723334 0.046071 -0.592440 0.000000 0.000000 0.000000 0.000000 0.000000 0.000000 0.000000 
13.248743 17.460672 1.592008 -172.643281 -84.290349 -164.442707 3.317153 -3.151741 -2.300406 0.640522 -3.399425 -3.754115 -4.750019 -3.395443 -1.999429 7.236202 -14.860982 -8.869697 -2.534040 -0.181253 -0.329545 0.000000 0.000000 0.000000 7.902708 4.047357 -0.513153 -81.262115 -0.216758 30.841835 -179.299791 -67.630602 179.956700 4.556276 -6.164663 -0.278518 -0.095438 0.806139 -0.000000 0.000000 0.000000 0.000000 0.000000 0.000000 0.000000 3.121573 -9.392337 -0.241936 72.233386 -19.901269 22.888506 179.957918 73.767519 179.951990 -5.912497 11.915506 -0.650151 0.033027 -0.590013 -0.000000 0.000000 0.000000 0.000000 0.000000 0.000000 0.000000 
13.008229 17.367644 1.563416 -172.837371 -84.205294 -164.557497 3.349840 -3.094210 -2.116428 0.629308 -3.339978 -3.717784 -4.804283 -3.332948 -2.000911 7.339126 -14.792599 -8.874097 -2.545597 -0.181673 -0.333709 0.000000 0.000000 0.000000 7.526698 4.199146 -0.469805 -81.388191 0.032119 30.649965 -179.310541 -68.438451 179.959408 4.314585 -6.221964 -0.265157 -0.085380 0.798064 -0.000000 0.000000 0.000000 0.000000 0.000000 0.000000 0.000000 3.364136 -9.296485 -0.229296 72.351425 -19.337710 22.842561 179.929757 74.181984 179.955564 -5.304919 11.828836 -0.577963 0.020733 -0.586809 -0.000000 0.000000 0.000000 0.000000 0.000000 0.000000 0.000000 
12.767627 17.265301 1.535163 -172.760613 -84.169683 -164.900535 3.414908 -3.033871 -1.987191 0.622236 -3.281811 -3.691492 -4.869086 -3.272776 -1.997064 7.459652 -14.720818 -8.879282 -2.564342 -0.182745 -0.337300 0.000000 0.000000 0.000000 7.102949 4.354559 -0.424828 -81.469760 0.305474 30.436903 -179.327195 -69.333152 179.962123 4.073132 -6.303665 -0.252596 -0.075577 0.789499 -0.000000 0.000000 0.000000 0.000000 0.000000 0.000000 0.000000 3.677792 -9.204066 -0.217429 72.429498 -18.709370 22.820035 179.898750 74.727264 179.959278 -4.733237 11.751400 -0.511161 0.010449 -0.582623 0.000000 0.000000 0.000000 0.000000 0.000000 0.000000 0.000000 
12.527077 17.155248 1.507330 -172.463367 -84.185982 -165.410214 3.507541 -2.971925 -1.918960 0.617882 -3.226323 -3.677701 -4.946751 -3.216636 -1.993953 7.599271 -14.632342 -8.879295 -2.593285 -0.184804 -0.338583 0.000000 0.000000 0.000000 6.632577 4.495223 -0.378118 -81.497057 0.630559 30.191614 -179.354026 -70.316076 179.964511 3.863042 -6.421270 -0.242828 -0.066784 0.780542 -0.000000 0.000000 0.000000 0.000000 0.000000 0.000000 0.000000 4.076306 -9.102774 -0.205522 72.461307 -18.017878 22.817398 179.867293 75.419076 179.962893 -4.249078 11.677362 -0.455037 0.003523 -0.577289 -0.000000 0.000000 0.000000 0.000000 0.000000 0.000000 0.000000 
12.286652 17.039496 1.480135 -171.919419 -84.252736 -166.101958 3.629229 -2.908274 -1.914570 0.615782 -3.174077 -3.675241 -5.041334 -3.164799 -1.985388 7.765515 -14.523556 -8.880184 -2.634884 -0.187948 -0.339434 0.000000 0.000000 0.000000 6.109497 4.656529 -0.327750 -81.448159 0.978808 29.942181 -179.390624 -71.404498 179.966050 3.755341 -6.498072 -0.238044 -0.061861 0.768613 -0.000000 0.000000 0.000000 0.000000 0.000000 0.000000 0.000000 4.582931 -8.990380 -0.197861 72.427392 -17.244342 22.849091 179.837662 76.255119 179.966242 -3.885980 11.594286 -0.412686 0.000804 -0.570739 -0.000000 0.000000 0.000000 0.000000 0.000000 0.000000 0.000000 
